:SAMPLES-PER-SECOND 30
:FULLY-SPECIFIED
:DEGREES
539
root  64.3131 38.3518 -4.37697 25.4772 85.7626 25.9521
RightUpLeg  -3.39681 -5.1913 -8.031
RightLeg  49.742 -9.5587 -12.2399
RightFoot  -8.60457 -0.00556869 -2.30304
RightToes  -1.33073e-015 0 -3.6325e-017
Spine  21.3429 1.10563 -1.79763
Spine1  -0.981727 1.75498 -4.41935
HEad  -22.8613 6.83168 0.0949319
LeftShoulder1  9.49328 -15.3452 -43.8344
LeftArm  -14.0829 26.3468 -22.6982
LeftForeArm  32.1804 -12.538 -3.01685
LeftHand  -0.244104 0.0205437 5.32207
RightShoulder  7.03355 11.1187 41.8455
RightArm  2.36358 -6.87583 37.261
RightForeArm  0.640322 32.1591 7.05865
RightHand  -2.1772 5.21922 -23.7942
LeftUpLeg  -20.5062 9.6142 -1.14098
LeftLeg  30.001 5.57199 3.81393
LeftFoot  -6.13604 0.052066 -0.410622
LeftToes  -7.82198e-011 2.46994e-011 -7.94165e-012
540
root  65.0043 38.7584 -4.40332 22.5714 85.503 23.3168
RightUpLeg  -7.29313 -5.82561 -7.3342
RightLeg  52.3137 -7.52944 -10.731
RightFoot  -7.79574 -0.0396677 -0.472275
RightToes  -1.33073e-015 0 -3.6325e-017
Spine  20.9278 0.814413 -2.03793
Spine1  -0.553487 1.44113 -4.44211
HEad  -22.7051 7.67031 0.0407434
LeftShoulder1  9.37281 -15.2156 -43.5648
LeftArm  -14.8052 25.1375 -24.1592
LeftForeArm  30.9103 -17.9581 -2.97843
LeftHand  -0.244104 0.0205437 5.32207
RightShoulder  7.06304 11.1673 41.8849
RightArm  6.1312 -8.10266 37.9361
RightForeArm  -3.77632 26.6689 5.90594
RightHand  -1.90455 4.33699 -22.6907
LeftUpLeg  -17.3928 10.1447 -0.884178
LeftLeg  26.9448 5.47987 3.35986
LeftFoot  -6.14767 0.0612576 -0.573739
LeftToes  -7.82198e-011 2.46994e-011 -7.94165e-012
541
root  65.6642 39.1893 -4.41584 17.7138 85.4696 18.7076
RightUpLeg  -10.619 -7.51053 -6.42989
RightLeg  52.272 -8.08827 -11.4144
RightFoot  -6.72888 -0.0953927 1.26113
RightToes  -1.33073e-015 0 -3.6325e-017
Spine  20.6579 0.401381 -2.13977
Spine1  -0.169294 0.911063 -3.93927
HEad  -22.1604 8.63097 -0.291531
LeftShoulder1  9.34402 -15.0541 -43.8228
LeftArm  -15.0685 23.3835 -25.021
LeftForeArm  31.329 -23.4474 -3.40072
LeftHand  -0.244104 0.0205437 5.32207
RightShoulder  7.03995 11.2801 41.3945
RightArm  10.0365 -9.52787 38.3463
RightForeArm  -4.50804 22.1691 5.27543
RightHand  -1.43437 2.68945 -20.6298
LeftUpLeg  -13.9974 10.9512 -0.332899
LeftLeg  23.1228 5.17588 2.75708
LeftFoot  -5.82313 0.0735842 -0.789146
LeftToes  -7.82198e-011 2.46994e-011 -7.94165e-012
542
root  66.311 39.548 -4.43218 9.72144 85.0057 10.7227
RightUpLeg  -13.7878 -9.22266 -5.19564
RightLeg  50.0042 -9.989 -12.8266
RightFoot  -6.2055 -0.11555 1.6439
RightToes  -1.33073e-015 0 -3.6325e-017
Spine  20.4932 0.0472988 -1.52451
Spine1  -0.655488 0.591955 -3.89074
HEad  -20.9464 9.32464 -0.197946
LeftShoulder1  9.29258 -14.9623 -43.7965
LeftArm  -15.7109 21.7481 -25.6405
LeftForeArm  34.2812 -28.9977 -4.40848
LeftHand  -0.244104 0.0205437 5.32207
RightShoulder  7.03075 11.3054 41.2602
RightArm  10.2788 -11.7535 37.9489
RightForeArm  -0.118048 18.9938 5.91472
RightHand  -1.15746 1.70562 -19.0079
LeftUpLeg  -10.865 12.1426 0.463944
LeftLeg  19.3837 4.76279 2.19002
LeftFoot  -5.15929 0.0900971 -1.07463
LeftToes  -7.82198e-011 2.46994e-011 -7.94165e-012
543
root  66.9429 39.7922 -4.40435 6.25385 84.1534 7.16064
RightUpLeg  -16.3588 -10.5134 -4.16862
RightLeg  45.222 -11.6475 -12.597
RightFoot  -6.33836 -0.127856 1.94216
RightToes  -1.33073e-015 0 -3.6325e-017
Spine  20.35 -0.192329 -0.95522
Spine1  -1.32249 0.492616 -4.54098
HEad  -19.7431 9.83335 0.298984
LeftShoulder1  9.09716 -14.861 -43.074
LeftArm  -16.501 20.129 -26.5191
LeftForeArm  38.0796 -34.6739 -5.55074
LeftHand  -0.244104 0.0205437 5.32207
RightShoulder  6.99462 10.9938 41.9829
RightArm  9.32382 -14.0771 36.5954
RightForeArm  4.04975 17.2569 6.48299
RightHand  -1.19517 2.0909 -18.6083
LeftUpLeg  -8.20063 12.8442 1.11688
LeftLeg  16.4275 4.90056 1.59647
LeftFoot  -4.89467 0.108438 -1.40612
LeftToes  -7.82198e-011 2.46994e-011 -7.94165e-012
544
root  67.589 39.9164 -4.29649 8.57684 83.3858 9.48871
RightUpLeg  -17.7435 -11.5142 -3.7517
RightLeg  37.5374 -11.5852 -9.6929
RightFoot  -5.71315 -0.174334 2.74094
RightToes  -1.33073e-015 0 -3.6325e-017
Spine  19.821 -0.234792 -1.66569
Spine1  -0.876575 0.279121 -4.29558
HEad  -19.6736 10.5534 0.0920028
LeftShoulder1  8.89906 -14.4476 -43.1075
LeftArm  -17.1046 17.7017 -26.7803
LeftForeArm  41.2253 -40.1008 -6.82287
LeftHand  -0.244104 0.0205437 5.32207
RightShoulder  6.75842 10.3794 42.3872
RightArm  8.66697 -15.5644 35.0469
RightForeArm  5.57905 16.4062 6.75975
RightHand  -1.36318 3.06398 -18.8099
LeftUpLeg  -5.79429 11.4966 1.65271
LeftLeg  14.3644 6.9755 0.644501
LeftFoot  -5.32147 0.12059 -1.68576
LeftToes  -7.82198e-011 2.46994e-011 -7.94165e-012
545
root  68.2857 39.9322 -4.13387 11.9722 82.8188 12.9798
RightUpLeg  -18.1153 -12.442 -3.58615
RightLeg  27.7471 -8.57217 -5.217
RightFoot  -3.6905 -0.238346 3.1965
RightToes  -1.33073e-015 0 -3.6325e-017
Spine  19.3642 -0.418992 -2.47376
Spine1  -0.986343 -0.0547548 -4.27043
HEad  -19.582 11.3448 -0.0116094
LeftShoulder1  8.69339 -14.2516 -42.5436
LeftArm  -17.5235 16.0708 -27.0998
LeftForeArm  43.4755 -44.9364 -8.18231
LeftHand  -0.244104 0.0205437 5.32207
RightShoulder  6.66356 10.034 42.8885
RightArm  7.40145 -17.4546 33.6538
RightForeArm  5.70787 15.9413 6.86715
RightHand  -1.38596 3.36484 -18.4738
LeftUpLeg  -3.52961 9.17757 2.08722
LeftLeg  12.8687 9.70334 -0.50367
LeftFoot  -6.14242 0.122283 -1.87741
LeftToes  -7.82198e-011 2.46994e-011 -7.94165e-012
546
root  69.0372 39.8973 -3.93366 15.6999 82.4968 16.9393
RightUpLeg  -17.553 -12.4195 -3.89223
RightLeg  17.2896 -3.90669 -1.17455
RightFoot  -1.05474 -0.312092 3.37323
RightToes  -1.33073e-015 0 -3.6325e-017
Spine  18.977 -0.759092 -3.1687
Spine1  -1.40493 -0.544849 -4.10546
HEad  -19.057 12.0982 -0.199323
LeftShoulder1  8.5701 -14.2224 -41.9741
LeftArm  -17.7968 15.2198 -27.1606
LeftForeArm  44.7429 -49.008 -9.56858
LeftHand  -0.244104 0.0205437 5.32207
RightShoulder  6.59714 9.93204 42.7704
RightArm  4.95247 -19.6038 33.1132
RightForeArm  6.06571 15.4139 6.87799
RightHand  -1.25373 2.90656 -17.654
LeftUpLeg  -1.10793 7.54941 2.32284
LeftLeg  11.3523 11.1487 -1.64965
LeftFoot  -7.04395 0.12442 -2.19718
LeftToes  -7.82198e-011 2.46994e-011 -7.94165e-012
547
root  69.8388 39.8167 -3.67777 21.1249 82.5518 22.8926
RightUpLeg  -15.9473 -9.25944 -5.66504
RightLeg  8.20793 -2.62204 1.4986
RightFoot  1.91497 -0.402693 3.57501
RightToes  -1.33073e-015 0 -3.6325e-017
Spine  18.2565 -1.11326 -4.11109
Spine1  -0.660715 -1.20497 -3.04611
HEad  -18.805 12.5603 -0.968257
LeftShoulder1  8.47388 -13.9262 -42.2229
LeftArm  -17.911 13.9425 -26.803
LeftForeArm  44.9218 -51.8141 -10.7147
LeftHand  -0.244104 0.0205437 5.32207
RightShoulder  6.28995 9.6074 41.7319
RightArm  2.20221 -20.9642 33.4516
RightForeArm  6.42332 14.9406 6.8075
RightHand  -1.20508 2.70728 -17.3865
LeftUpLeg  1.33567 7.17841 2.45218
LeftLeg  10.448 10.745 -2.61928
LeftFoot  -8.26642 0.127436 -2.91164
LeftToes  -7.82198e-011 2.46994e-011 -7.94165e-012
548
root  70.69 39.7124 -3.35295 27.6445 82.8352 30.2171
RightUpLeg  -14.3406 -7.72498 -7.02277
RightLeg  3.21103 -2.37911 2.68277
RightFoot  5.62731 -0.379976 2.84044
RightToes  -1.33073e-015 0 -3.6325e-017
Spine  17.7926 -1.56479 -3.99607
Spine1  -0.681676 -1.57448 -3.59135
HEad  -17.3715 12.1096 -0.646031
LeftShoulder1  8.23026 -14.0101 -40.7029
LeftArm  -17.8841 13.7992 -27.8501
LeftForeArm  44.5367 -52.6231 -11.1167
LeftHand  -0.244104 0.0205437 5.32207
RightShoulder  6.23753 9.41747 42.0045
RightArm  0.188632 -23.1914 33.3594
RightForeArm  5.67761 15.1205 6.55852
RightHand  -1.28787 3.07896 -17.7674
LeftUpLeg  3.82165 7.46544 2.62678
LeftLeg  10.1224 9.54053 -3.1391
LeftFoot  -9.54732 0.116531 -3.74572
LeftToes  -7.82198e-011 2.46994e-011 -7.94165e-012
549
root  71.5789 39.596 -3.00779 29.2088 83.0564 32.6735
RightUpLeg  -13.5772 -8.66355 -7.05463
RightLeg  3.83261 -1.60912 3.2848
RightFoot  9.11197 -0.0881779 0.837635
RightToes  -1.33073e-015 0 -3.6325e-017
Spine  17.0163 -1.72302 -3.2695
Spine1  -0.190916 -1.76364 -2.91957
HEad  -16.2258 11.6198 -1.32123
LeftShoulder1  8.12182 -13.6443 -41.0526
LeftArm  -17.4971 13.396 -28.0929
LeftForeArm  43.6584 -51.8181 -10.822
LeftHand  -0.244104 0.0205437 5.32207
RightShoulder  6.0418 9.25714 41.1411
RightArm  -1.39587 -25.0237 33.6703
RightForeArm  5.38008 15.1186 6.40326
RightHand  -1.29482 3.1219 -17.7691
LeftUpLeg  6.26103 8.08589 3.07187
LeftLeg  10.2764 8.30753 -2.58405
LeftFoot  -11 0.0788487 -4.56733
LeftToes  -7.82198e-011 2.46994e-011 -7.94165e-012
550
root  72.4753 39.4352 -2.69877 21.5898 83.3469 25.8749
RightUpLeg  -13.4682 -10.0096 -5.92145
RightLeg  7.86155 -0.455669 3.62169
RightFoot  10.118 0.310383 -1.29384
RightToes  -1.33073e-015 0 -3.6325e-017
Spine  16.5026 -2.01898 -0.665322
Spine1  -0.503116 -1.72566 -2.83308
HEad  -14.8881 11.1359 -2.01452
LeftShoulder1  8.1451 -13.3361 -41.991
LeftArm  -17.3678 14.1496 -28.2375
LeftForeArm  43.4477 -50.0224 -10.0676
LeftHand  -0.244104 0.0205437 5.32207
RightShoulder  6.00548 9.47577 40.1253
RightArm  -2.77684 -26.7049 33.8496
RightForeArm  5.87929 14.5548 6.40707
RightHand  -1.09821 2.18797 -16.9141
LeftUpLeg  7.83645 9.26714 4.01159
LeftLeg  12.1351 6.78793 -0.50237
LeftFoot  -13.1656 -0.0211574 -6.06421
LeftToes  -7.82198e-011 2.46994e-011 -7.94165e-012
